<svg xmlns="http://www.w3.org/2000/svg" viewBox="0 0 512 512" width="512" height="512">
  <circle cx="256" cy="256" r="240" fill="#D2FFD2"/>
  <circle cx="256" cy="256" r="200" fill="#FFFFFF"/>
  <path d="M369.4 327.2c-5.9-5.9-15.4-5.9-21.2 0l-25.7 25.7-25.7-25.7c-5.9-5.9-15.4-5.9-21.2 0s-5.9 15.4 0 21.2l25.7 25.7-25.7 25.7c-5.9 5.9-5.9 15.4 0 21.2s15.4 5.9 21.2 0l25.7-25.7 25.7 25.7c5.9 5.9 15.4 5.9 21.2 0s5.9-15.4 0-21.2l-25.7-25.7 25.7-25.7c5.9-5.9 5.9-15.4 0-21.2zM256 32C132.3 32 32 132.3 32 256s100.3 224 224 224 224-100.3 224-224S379.7 32 256 32zm0 416c-105.9 0-192-86.1-192-192S150.1 64 256 64s192 86.1 192 192-86.1 192-192 192z" fill="#000000"/>
</svg>
